<svg xmlns="http://www.w3.org/2000/svg" width="1512" height="982" fill="none" viewBox="0 0 1512 982"><g clip-path="url(#clip0_107_2)"><circle cx="201" cy="154" r="10" fill="#724CF9" fill-opacity=".5"/><circle cx="329" cy="154" r="10" fill="#724CF9" fill-opacity=".5"/><circle cx="265" cy="154" r="10" fill="#724CF9" fill-opacity=".5"/><circle cx="201" cy="220" r="10" fill="#724CF9" fill-opacity=".5"/><circle cx="329" cy="220" r="10" fill="#724CF9" fill-opacity=".5"/><circle cx="265" cy="220" r="10" fill="#724CF9" fill-opacity=".5"/><circle cx="201" cy="286" r="10" fill="#724CF9" fill-opacity=".5"/><circle cx="329" cy="286" r="10" fill="#724CF9" fill-opacity=".5"/><circle cx="265" cy="286" r="10" fill="#724CF9" fill-opacity=".5"/><circle cx="201" cy="352" r="10" fill="#724CF9" fill-opacity=".5"/><circle cx="329" cy="352" r="10" fill="#724CF9" fill-opacity=".5"/><circle cx="265" cy="352" r="10" fill="#724CF9" fill-opacity=".5"/><circle cx="201" cy="418" r="10" fill="#724CF9" fill-opacity=".5"/><circle cx="329" cy="418" r="10" fill="#724CF9" fill-opacity=".5"/><circle cx="265" cy="418" r="10" fill="#724CF9" fill-opacity=".5"/><circle cx="201" cy="484" r="10" fill="#724CF9" fill-opacity=".5"/><circle cx="329" cy="484" r="10" fill="#724CF9" fill-opacity=".5"/><circle cx="265" cy="484" r="10" fill="#724CF9" fill-opacity=".5"/><circle cx="393" cy="352" r="10" fill="#724CF9" fill-opacity=".5"/><circle cx="521" cy="352" r="10" fill="#724CF9" fill-opacity=".5"/><circle cx="457" cy="352" r="10" fill="#724CF9" fill-opacity=".5"/><circle cx="393" cy="418" r="10" fill="#724CF9" fill-opacity=".5"/><circle cx="521" cy="418" r="10" fill="#724CF9" fill-opacity=".5"/><circle cx="457" cy="418" r="10" fill="#724CF9" fill-opacity=".5"/><circle cx="393" cy="484" r="10" fill="#724CF9" fill-opacity=".5"/><circle cx="521" cy="484" r="10" fill="#724CF9" fill-opacity=".5"/><circle cx="457" cy="484" r="10" fill="#724CF9" fill-opacity=".5"/><path fill="#724CF9" fill-opacity=".5" d="M1349.59 273.384C1353.44 260.831 1354.79 247.641 1353.55 234.568C1352.32 221.494 1348.51 208.793 1342.37 197.188C1336.22 185.584 1327.85 175.304 1317.73 166.935C1307.61 158.567 1295.94 152.273 1283.38 148.415C1270.83 144.556 1257.64 143.208 1244.57 144.446C1231.49 145.685 1218.79 149.487 1207.19 155.634C1195.58 161.782 1185.3 170.154 1176.93 180.275C1168.57 190.395 1162.27 202.065 1158.41 214.617L1182.31 221.963C1185.2 212.549 1189.92 203.796 1196.2 196.206C1202.48 188.616 1210.19 182.336 1218.89 177.726C1227.59 173.115 1237.12 170.264 1246.93 169.335C1256.73 168.406 1266.62 169.417 1276.04 172.311C1285.45 175.205 1294.2 179.925 1301.79 186.201C1309.38 192.478 1315.66 200.188 1320.27 208.891C1324.89 217.595 1327.74 227.121 1328.67 236.926C1329.59 246.731 1328.58 256.623 1325.69 266.038L1349.59 273.384Z"/><path fill="#724CF9" fill-opacity=".5" d="M1254 144C1270.45 144 1286.64 148.056 1301.14 155.808C1315.64 163.56 1328.01 174.769 1337.15 188.443C1346.28 202.117 1351.91 217.832 1353.52 234.198C1355.13 250.564 1352.68 267.075 1346.39 282.268C1340.09 297.462 1330.15 310.868 1317.44 321.301C1304.73 331.734 1289.64 338.87 1273.51 342.079C1257.38 345.287 1240.71 344.468 1224.97 339.694C1209.23 334.92 1194.92 326.339 1183.29 314.711L1254 244L1254 144Z"/><circle cx="393" cy="154" r="10" fill="#724CF9" fill-opacity=".5"/><circle cx="521" cy="154" r="10" fill="#724CF9" fill-opacity=".5"/><circle cx="457" cy="154" r="10" fill="#724CF9" fill-opacity=".5"/><circle cx="393" cy="220" r="10" fill="#724CF9" fill-opacity=".5"/><circle cx="521" cy="220" r="10" fill="#724CF9" fill-opacity=".5"/><circle cx="457" cy="220" r="10" fill="#724CF9" fill-opacity=".5"/><circle cx="393" cy="286" r="10" fill="#724CF9" fill-opacity=".5"/><circle cx="521" cy="286" r="10" fill="#724CF9" fill-opacity=".5"/><circle cx="457" cy="286" r="10" fill="#724CF9" fill-opacity=".5"/><ellipse cx="1140.5" cy="624" fill="#724CF9" fill-opacity=".5" rx="6.5" ry="6"/><ellipse cx="1223.5" cy="624" fill="#724CF9" fill-opacity=".5" rx="6.5" ry="6"/><ellipse cx="1181.5" cy="624" fill="#724CF9" fill-opacity=".5" rx="6.5" ry="6"/><circle cx="1140.5" cy="666.5" r="6.5" fill="#724CF9" fill-opacity=".5"/><circle cx="1223.5" cy="666.5" r="6.5" fill="#724CF9" fill-opacity=".5"/><circle cx="1181.5" cy="666.5" r="6.5" fill="#724CF9" fill-opacity=".5"/><circle cx="1140.5" cy="709.5" r="6.5" fill="#724CF9" fill-opacity=".5"/><circle cx="1223.5" cy="709.5" r="6.5" fill="#724CF9" fill-opacity=".5"/><circle cx="1181.5" cy="709.5" r="6.5" fill="#724CF9" fill-opacity=".5"/><circle cx="1140.5" cy="752.5" r="6.5" fill="#724CF9" fill-opacity=".5"/><circle cx="1223.5" cy="752.5" r="6.5" fill="#724CF9" fill-opacity=".5"/><circle cx="1181.5" cy="752.5" r="6.5" fill="#724CF9" fill-opacity=".5"/><circle cx="1140.5" cy="794.5" r="6.5" fill="#724CF9" fill-opacity=".5"/><circle cx="1223.5" cy="794.5" r="6.5" fill="#724CF9" fill-opacity=".5"/><circle cx="1181.5" cy="794.5" r="6.5" fill="#724CF9" fill-opacity=".5"/><circle cx="1140.5" cy="837.5" r="6.5" fill="#724CF9" fill-opacity=".5"/><circle cx="1223.5" cy="837.5" r="6.5" fill="#724CF9" fill-opacity=".5"/><circle cx="1181.5" cy="837.5" r="6.5" fill="#724CF9" fill-opacity=".5"/><circle cx="1264.5" cy="752.5" r="6.5" fill="#724CF9" fill-opacity=".5"/><circle cx="1347.5" cy="752.5" r="6.5" fill="#724CF9" fill-opacity=".5"/><circle cx="1306.5" cy="752.5" r="6.5" fill="#724CF9" fill-opacity=".5"/><circle cx="1264.5" cy="794.5" r="6.5" fill="#724CF9" fill-opacity=".5"/><circle cx="1347.5" cy="794.5" r="6.5" fill="#724CF9" fill-opacity=".5"/><circle cx="1306.5" cy="794.5" r="6.5" fill="#724CF9" fill-opacity=".5"/><circle cx="1264.5" cy="837.5" r="6.5" fill="#724CF9" fill-opacity=".5"/><circle cx="1347.5" cy="837.5" r="6.5" fill="#724CF9" fill-opacity=".5"/><circle cx="1306.5" cy="837.5" r="6.5" fill="#724CF9" fill-opacity=".5"/><ellipse cx="1264.5" cy="624" fill="#724CF9" fill-opacity=".5" rx="6.5" ry="6"/><ellipse cx="1347.5" cy="624" fill="#724CF9" fill-opacity=".5" rx="6.5" ry="6"/><ellipse cx="1306.5" cy="624" fill="#724CF9" fill-opacity=".5" rx="6.5" ry="6"/><circle cx="1264.5" cy="666.5" r="6.5" fill="#724CF9" fill-opacity=".5"/><circle cx="1347.5" cy="666.5" r="6.5" fill="#724CF9" fill-opacity=".5"/><circle cx="1306.5" cy="666.5" r="6.5" fill="#724CF9" fill-opacity=".5"/><circle cx="1264.5" cy="709.5" r="6.5" fill="#724CF9" fill-opacity=".5"/><circle cx="1347.5" cy="709.5" r="6.5" fill="#724CF9" fill-opacity=".5"/><circle cx="1306.5" cy="709.5" r="6.5" fill="#724CF9" fill-opacity=".5"/><path fill="#724CF9" fill-opacity=".5" d="M339.713 857.59L313.67 595.528L597.617 910.883L339.713 857.59Z"/></g><defs><clipPath id="clip0_107_2"><rect width="1512" height="982" fill="#fff"/></clipPath></defs></svg>